<svg xmlns="http://www.w3.org/2000/svg" viewBox="0 0 32 32">
  <defs>
    <linearGradient id="g" x1="0" y1="0" x2="1" y2="1">
      <stop offset="0" stop-color="#3389ff"/>
      <stop offset="1" stop-color="#0040cc"/>
    </linearGradient>
  </defs>
  <rect x="0" y="0" width="32" height="32" rx="7" fill="url(#g)"/>
  <g transform="translate(6 6) scale(0.833)">
    <path fill="#ffffff" d="M4 5.5A2.5 2.5 0 0 1 6.5 3h11A2.5 2.5 0 0 1 20 5.5v8A2.5 2.5 0 0 1 17.5 16H13v2h3a1 1 0 1 1 0 2H8a1 1 0 1 1 0-2h3v-2H6.5A2.5 2.5 0 0 1 4 13.5v-8Z"/>
  </g>
</svg>
